<svg class="fill-current" xmlns="http://www.w3.org/2000/svg" viewBox="0 0 464.05 548.06"><defs><style>.cls-1{fill:#ac3f3e;}.cls-2{fill:#231f20;}.cls-3{fill:#e55d5c;}.cls-4{fill:#ab3e3e;}.cls-5{fill:#fff;}</style></defs><title>Dice Not Mice</title><path class="cls-1" d="M232,542.23a5.82,5.82,0,0,1-3-.81L8.69,411.05a5.84,5.84,0,0,1-2.86-5V150.64a5.84,5.84,0,0,1,2.72-4.93l220.37-139a5.82,5.82,0,0,1,6.22,0l220.36,139a5.84,5.84,0,0,1,2.72,4.93V406a5.84,5.84,0,0,1-2.86,5L235,541.42A5.81,5.81,0,0,1,232,542.23Z"/><path class="cls-2" d="M232,11.66l220.36,139V406L232,536.4,11.66,406V150.64L232,11.66M232,0a11.64,11.64,0,0,0-6.22,1.8L5.44,140.78A11.66,11.66,0,0,0,0,150.64V406a11.67,11.67,0,0,0,5.72,10L226.09,546.44a11.68,11.68,0,0,0,11.87,0L458.33,416.07a11.65,11.65,0,0,0,5.72-10V150.64a11.66,11.66,0,0,0-5.44-9.86L238.25,1.8A11.64,11.64,0,0,0,232,0Z"/><polygon class="cls-3" points="233.19 436.21 446.88 407.94 233.19 534.36 233.19 436.21"/><path class="cls-4" d="M441.37,409.84l-207,122.47V437.24l207-27.4m11-3.81L232,435.19V536.4L452.39,406Z"/><polygon class="cls-3" points="377.23 191.32 451.23 152.57 451.23 399.28 377.23 191.32"/><path class="cls-4" d="M450.06,154.5v238L378.67,191.88l71.39-37.38m2.33-3.86-76.6,40.12L452.39,406V150.64Z"/><polygon class="cls-3" points="237.3 16.36 450.06 150.55 376.1 189.28 237.3 16.36"/><path class="cls-4" d="M242.57,21.07,447.72,150.46,376.41,187.8,242.57,21.07M232,11.66l143.76,179.1,76.6-40.12L232,11.66Z"/><polygon class="cls-3" points="375.53 193.5 450.81 405.07 234.24 433.72 375.53 193.5"/><path class="cls-4" d="M375.27,196.25l74,207.85L236.46,432.25l138.81-236m.52-5.49L232,435.19,452.39,406l-76.6-215.27Z"/><polygon class="cls-3" points="90.3 191.92 373.75 191.92 232.03 432.89 90.3 191.92"/><path class="cls-4" d="M371.72,193.09,232,430.59,92.34,193.09H371.72m4.07-2.33H88.26L232,435.19,375.79,190.76Z"/><polygon class="cls-3" points="90.69 189.59 232.03 13.52 373.36 189.59 90.69 189.59"/><path class="cls-4" d="M232,15.39l138.9,173H93.12L232,15.39m0-3.73L88.26,190.76H375.79L232,11.66Z"/><polygon class="cls-3" points="17.17 407.94 230.86 436.21 230.86 534.36 17.17 407.94"/><path class="cls-4" d="M22.68,409.84l207,27.4v95.07l-207-122.47m-11-3.81L232,536.4V435.19L11.66,406Z"/><polygon class="cls-3" points="12.83 152.57 86.82 191.32 12.83 399.28 12.83 152.57"/><path class="cls-4" d="M14,154.5l71.39,37.38L14,392.52v-238m-2.33-3.86V406l76.6-215.27-76.6-40.12Z"/><polygon class="cls-3" points="13.99 150.55 226.76 16.36 87.95 189.28 13.99 150.55"/><path class="cls-4" d="M221.49,21.07,87.64,187.8,16.33,150.46,221.49,21.07M232,11.66l-220.37,139,76.6,40.12L232,11.66Z"/><polygon class="cls-3" points="13.24 405.07 88.52 193.5 229.81 433.72 13.24 405.07"/><path class="cls-4" d="M88.78,196.25l138.81,236L14.82,404.1l74-207.85m-.52-5.49L11.66,406,232,435.19,88.26,190.76Z"/><path class="cls-5" d="M152.61,221.22c0,34.9-4.11,83.91-51.32,83.91-11.55,0-40.29-1.79-40.29-1.79V301s5.39-4.88,5.39-10V136c0-4.87-5.39-9.75-5.39-9.75V124s23.61-3.33,41.06-3.33c45.67,0,50.55,43.88,50.55,85.7Zm-34.13-8.46c0-30-1.28-55.69-13.86-59.54-1.28-.76-3.08-.76-4.62-.76v120.6a25.08,25.08,0,0,0,4.62-.52C117.2,268.18,118.48,243,118.48,212.76Z"/><path class="cls-5" d="M205.3,136V291c0,4.87,5.39,10,5.39,10v2.31h-44.4V301s5.39-4.88,5.39-10V136c0-4.87-5.39-9.75-5.39-9.75V124h44.4v2.31S205.3,131.41,205.3,136Z"/><path class="cls-5" d="M301.86,255.86h2.83l-3.08,44.65a79.35,79.35,0,0,1-25.92,4.62,51.87,51.87,0,0,1-17.45-2.82c-30.28-10.26-33.1-48.5-33.87-83.14V204c.51-26.43,3.59-49.52,12.83-64.92,4.62-7.7,11.8-12.06,21-16.16a48.76,48.76,0,0,1,16.94-2.83A80.54,80.54,0,0,1,301.61,125l3.08,44.65h-2.83c-3.07-10.52-20.27-20-29.76-16.43-12.57,3.85-13.86,29.51-13.86,59.54,0,30.27,1.29,55.42,13.86,59.78C281.59,275.62,298.79,266.38,301.86,255.86Z"/><path class="cls-5" d="M403.05,259.2s-5.39,27.2-5.39,44.14H318.37V301s5.39-4.88,5.39-10V136c0-4.62-5.39-9.75-5.39-9.75V124h73.39c0,16.94,5.9,44.14,5.9,44.14h-2.31c-3.59-7.44-13.6-11-19.5-11h-19v29h21c5.14,0,9.75-5.9,9.75-5.9h2.57v44.39h-2.57s-4.61-5.39-9.75-5.39h-21v50.55h24.89c5.39,0,15.91-3.08,19.25-10.52Z"/><path class="cls-5" d="M105.13,346.71v74.45c0,2.34,2.71,4.81,2.71,4.81v1.11H86.39V426s2.47-2.1,2.71-4.44l-9.49-29.34v29c0,2.34,2.59,4.81,2.59,4.81v1.11H61V426s2.59-2.35,2.59-4.81V346.71C63.59,344.37,61,342,61,342v-1.11H82.2V342a11.1,11.1,0,0,0-2.46,3.82l9.36,28.47V346.71c0-2.34-2.71-4.68-2.71-4.68v-1.11h21.45V342S105.13,344.49,105.13,346.71Z"/><path class="cls-5" d="M155.3,383.93c0,24.29-3.09,44-22.07,44-20.46,0-21.94-19.72-21.94-44s3.21-44,21.94-44C154.06,339.93,155.3,359.65,155.3,383.93Zm-16.15,0c0-14.79-.37-26.87-5.67-26.87-4.93,0-5.92,12.08-5.92,26.87s.5,26.75,5.92,26.75C138.29,410.68,139.15,398.73,139.15,383.93Z"/><path class="cls-5" d="M202.88,362.12h-1.24c-1.6-3.58-6.41-5.3-9.24-5.3h-3.7v64.34c0,2.34,2.71,4.81,2.71,4.81v1.11H170.09V426s2.59-2.35,2.59-4.81V356.82H169c-2.84,0-7.64,1.72-9.24,5.3h-1s2.59-13.07,2.59-21.2h38.95C200.29,349.05,202.88,362.12,202.88,362.12Z"/><path class="cls-5" d="M281.52,346.71v74.45c0,2.34,2.58,4.81,2.58,4.81v1.11H262.78V426s2.59-2.35,2.59-4.81v-25l-8.88,30.57h-1.11L246.63,396v25.15c0,2.34,2.59,4.81,2.59,4.81v1.11H227.9V426s2.59-2.35,2.59-4.81V346.71c0-2.34-2.59-4.68-2.59-4.68v-1.11h21.32V342s-2.59,1.35-2.59,3.45l9.25,32.41,9.49-32.41c0-2.47-2.59-3.45-2.59-3.45v-1.11H284.1V342S281.52,344.49,281.52,346.71Z"/><path class="cls-5" d="M309,346.71v74.45c0,2.34,2.59,4.81,2.59,4.81v1.11H290.23V426s2.58-2.35,2.58-4.81V346.71c0-2.34-2.58-4.68-2.58-4.68v-1.11h21.32V342S309,344.49,309,346.71Z"/><path class="cls-5" d="M354.9,404.27h1.35l-1.48,21.45a38.08,38.08,0,0,1-12.45,2.22,24.76,24.76,0,0,1-8.38-1.36c-14.54-4.93-15.9-23.29-16.27-39.93v-7.28c.25-12.69,1.73-23.79,6.17-31.18,2.21-3.7,5.67-5.79,10.1-7.77a23.65,23.65,0,0,1,8.14-1.35,38.68,38.68,0,0,1,12.69,2.34l1.48,21.45H354.9c-1.48-5.06-9.74-9.62-14.3-7.89-6,1.85-6.66,14.17-6.66,28.59s.62,26.63,6.66,28.72C345.16,413.76,353.42,409.33,354.9,404.27Z"/><path class="cls-5" d="M403.05,405.87s-2.59,13.07-2.59,21.21H362.38V426s2.58-2.35,2.58-4.81V346.71c0-2.22-2.58-4.68-2.58-4.68v-1.11h35.25c0,8.13,2.83,21.2,2.83,21.2h-1.11c-1.72-3.58-6.53-5.3-9.36-5.3h-9.13v13.93H391c2.47,0,4.69-2.84,4.69-2.84h1.23v21.32h-1.23s-2.22-2.58-4.69-2.58H380.86v24.28h12c2.59,0,7.64-1.48,9.25-5.06Z"/></svg>